<?xml version="1.0" standalone="no"?>
<!DOCTYPE svg PUBLIC "-//W3C//DTD SVG 20010904//EN"
 "http://www.w3.org/TR/2001/REC-SVG-20010904/DTD/svg10.dtd">
<svg version="1.0" xmlns="http://www.w3.org/2000/svg"
 width="200.000000pt" height="200.000000pt" viewBox="0 0 200.000000 200.000000"
 preserveAspectRatio="xMidYMid meet">
<metadata>
Created by potrace 1.14, written by Peter Selinger 2001-2017
</metadata>
<g transform="translate(0.000000,200.000000) scale(0.100000,-0.100000)"
fill="#000000" stroke="none">
<path d="M0 1910 l0 -90 60 0 60 0 0 30 c0 27 3 30 30 30 27 0 30 -3 30 -30
l0 -30 150 0 150 0 0 -30 c0 -27 3 -30 30 -30 l30 0 0 60 0 60 30 0 c27 0 30
-3 30 -30 0 -27 3 -30 30 -30 l30 0 0 60 0 60 30 0 c27 0 30 -3 30 -30 0 -27
3 -30 30 -30 27 0 30 3 30 30 l0 30 60 0 60 0 0 -30 c0 -27 3 -30 30 -30 27 0
30 -3 30 -30 l0 -30 90 0 90 0 0 30 c0 27 3 30 30 30 27 0 30 -3 30 -30 l0
-30 60 0 60 0 0 30 0 30 90 0 90 0 0 30 c0 27 3 30 30 30 27 0 30 -3 30 -30 0
-27 3 -30 30 -30 27 0 30 3 30 30 l0 30 190 0 190 0 0 30 0 30 -1000 0 -1000
0 0 -90z"/>
<path d="M60 1730 c0 -27 3 -30 30 -30 27 0 30 3 30 30 0 27 -3 30 -30 30 -27
0 -30 -3 -30 -30z"/>
<path d="M780 1580 l0 -60 -90 0 -90 0 0 -30 0 -30 90 0 90 0 0 -30 c0 -27 -3
-30 -30 -30 l-30 0 0 -60 0 -60 -60 0 -60 0 0 -90 0 -90 30 0 c27 0 30 -3 30
-30 l0 -30 -60 0 -60 0 0 30 c0 27 -3 30 -30 30 -27 0 -30 -3 -30 -30 0 -27 3
-30 30 -30 27 0 30 -3 30 -30 0 -27 -3 -30 -30 -30 -27 0 -30 -3 -30 -30 0
-27 -3 -30 -30 -30 l-30 0 0 -60 0 -60 -30 0 -30 0 0 -90 0 -90 30 0 30 0 0
90 0 90 30 0 30 0 0 -120 0 -120 30 0 30 0 0 -210 0 -210 60 0 60 0 0 -30 0
-30 60 0 60 0 0 -30 0 -30 60 0 c33 0 60 -4 60 -10 0 -6 47 -10 120 -10 73 0
120 4 120 10 0 6 -27 10 -60 10 l-60 0 0 30 0 30 -60 0 -60 0 0 30 c0 27 -3
30 -30 30 l-30 0 0 60 0 60 -30 0 c-27 0 -30 3 -30 30 0 27 3 30 30 30 l30 0
0 60 0 60 -30 0 -30 0 0 150 0 150 30 0 c27 0 30 -3 30 -30 0 -27 3 -30 30
-30 l30 0 0 -90 0 -90 30 0 30 0 0 90 0 90 -30 0 -30 0 0 60 0 60 -30 0 c-27
0 -30 3 -30 30 0 27 3 30 30 30 27 0 30 3 30 30 0 27 -3 30 -30 30 -27 0 -30
3 -30 30 0 27 3 30 30 30 27 0 30 3 30 30 0 27 -3 30 -30 30 l-30 0 0 150 0
150 30 0 30 0 0 -90 0 -90 30 0 30 0 0 -60 0 -60 30 0 c27 0 30 -3 30 -30 0
-27 -3 -30 -30 -30 l-30 0 0 -120 0 -120 30 0 c27 0 30 3 30 30 0 27 3 30 30
30 l30 0 0 60 0 60 60 0 60 0 0 90 0 90 -30 0 c-27 0 -30 3 -30 30 0 27 -3 30
-30 30 l-30 0 0 90 0 90 -90 0 -90 0 0 90 0 90 -30 0 c-27 0 -30 3 -30 30 0
27 3 30 30 30 27 0 30 3 30 30 l0 30 -60 0 -60 0 0 -60z m300 -450 c0 -27 -3
-30 -30 -30 -27 0 -30 3 -30 30 0 27 3 30 30 30 27 0 30 -3 30 -30z m-360
-810 l0 -180 -30 0 -30 0 0 60 0 60 -30 0 -30 0 0 60 0 60 30 0 30 0 0 60 0
60 30 0 30 0 0 -180z"/>
<path d="M180 1430 c0 -27 3 -30 30 -30 27 0 30 3 30 30 0 27 -3 30 -30 30
-27 0 -30 -3 -30 -30z"/>
<path d="M180 1190 c0 -27 3 -30 30 -30 27 0 30 3 30 30 0 27 -3 30 -30 30
-27 0 -30 -3 -30 -30z"/>
<path d="M0 1070 l0 -30 60 0 60 0 0 30 0 30 -60 0 -60 0 0 -30z"/>
<path d="M0 950 c0 -27 3 -30 30 -30 27 0 30 3 30 30 0 27 -3 30 -30 30 -27 0
-30 -3 -30 -30z"/>
<path d="M120 830 c0 -27 -3 -30 -30 -30 -27 0 -30 -3 -30 -30 l0 -30 60 0 60
0 0 60 0 60 -30 0 c-27 0 -30 -3 -30 -30z"/>
<path d="M240 830 c0 -27 3 -30 30 -30 27 0 30 3 30 30 0 27 -3 30 -30 30 -27
0 -30 -3 -30 -30z"/>
<path d="M240 650 c0 -27 -3 -30 -30 -30 -27 0 -30 -3 -30 -30 l0 -30 60 0 60
0 0 60 0 60 -30 0 c-27 0 -30 -3 -30 -30z"/>
<path d="M1860 530 l0 -30 -180 0 -180 0 0 -30 0 -30 -60 0 -60 0 0 -30 c0
-27 3 -30 30 -30 27 0 30 -3 30 -30 0 -27 3 -30 30 -30 27 0 30 -3 30 -30 0
-27 3 -30 30 -30 27 0 30 -3 30 -30 0 -27 3 -30 30 -30 l30 0 0 -60 0 -60 30
0 c27 0 30 -3 30 -30 0 -27 3 -30 30 -30 17 0 30 -4 30 -10 0 -6 27 -10 60
-10 33 0 60 4 60 10 0 6 -27 10 -60 10 l-60 0 0 60 0 60 30 0 30 0 0 90 0 90
30 0 c27 0 30 3 30 30 l0 30 70 0 70 0 0 90 0 90 -70 0 -70 0 0 -30z"/>
</g>
</svg>
